# xmcd
#
# Track frame offsets:
#	150
#	5488
#	17690
#	31070
#	44321
#	48748
#	59386
#	71003
#	82589
#	95082
#	105382
#	116142
#	122550
#	132731
#	139774
#	153770
#	157811
#	171506
#	182087
#	192278
#	195682
#	209753
#	211847
#
# Disc length: 2995 seconds
#
# Revision: 1
# Processed by: cddbd v1.5.2PL0 Copyright (c) Steve Scherf et al.
# Submitted via: audiograbber 1.83.01
#
DISCID=430bb117
DTITLE=The Everett Brothers - A Tribute To Randall Everett Disc 2
DYEAR=2008
DGENRE=Bluegrass
TTITLE0=Randalls Influences
TTITLE1=Bluebirds Are Singing For Me
TTITLE2=Crying' My Heart Out Over You
TTITLE3=Are You Missing Me?
TTITLE4=Welcome Aboard
TTITLE5=Home Run Man
TTITLE6=Dim Lights, Thick Smoke
TTITLE7=The Log Cabin In The Lane
TTITLE8=I Know You're Married
TTITLE9=The Tennessee Border
TTITLE10=I Wouldn't Change You If I Could
TTITLE11=What's Agoin' on Here at Everett's Music Barn
TTITLE12=Head Over Heels
TTITLE13=Recuperating From Recuperating
TTITLE14=Your Love Is Like A Flower
TTITLE15=I Saw You... Intro
TTITLE16=I Saw You With God Last Night
TTITLE17=Make Him A Soldier
TTITLE18=Why Not Confess?
TTITLE19=Rank Stranger Intro
TTITLE20=Rank Stranger
TTITLE21=A Beautiful Life Intro
TTITLE22=A Beautiful Life
EXTD=
EXTT0=
EXTT1=
EXTT2=
EXTT3=
EXTT4=
EXTT5=
EXTT6=
EXTT7=
EXTT8=
EXTT9=
EXTT10=
EXTT11=
EXTT12=
EXTT13=
EXTT14=
EXTT15=
EXTT16=
EXTT17=
EXTT18=
EXTT19=
EXTT20=
EXTT21=
EXTT22=
PLAYORDER=
